<svg version="1.1" id="Layer_1" xmlns="http://www.w3.org/2000/svg" xmlns:xlink="http://www.w3.org/1999/xlink" x="0px" y="0px" viewBox="0 0 636 152" enable-background="new 0 0 636 152" xml:space="preserve"><g><path fill="#FFFFFF" d="M81.143,148.52c-19.362,0-37.565-7.54-51.255-21.23c-13.691-13.691-21.23-31.894-21.23-51.255&#10;&#9;&#9;&#9;&#9;&#9;c0-19.362,7.54-37.565,21.23-51.255c13.691-13.691,31.894-21.23,51.255-21.23c19.362,0,37.564,7.54,51.255,21.23&#10;&#9;&#9;&#9;&#9;&#9;c13.691,13.691,21.23,31.893,21.23,51.255c0,19.362-7.54,37.564-21.23,51.255C118.708,140.98,100.505,148.52,81.143,148.52z"/><path fill="#0F4F79" d="M82.556,144.285c18.056,0,33.983-6.466,46.75-19.234c12.767-12.766,19.798-29.741,19.798-47.796&#10;&#9;&#9;&#9;&#9;&#9;c0-5.711-0.703-11.313-2.069-16.709c-37.001,0-66.611,29.897-66.611,66.898C80.424,133.25,81.168,138.912,82.556,144.285z"/><path fill="#5FA0D6" d="M17.435,60.45l6.488,0.356c1.536,15.033,14.235,26.761,29.673,26.761c8.186,0,15.602-3.298,20.992-8.637&#10;&#9;&#9;&#9;&#9;&#9;c3.229,3.722,5.388,7.696,6.372,12.653l2.762,0.024c0.94-4.795,3.066-9.166,6.059-12.795l0.152,0.072&#10;&#9;&#9;&#9;&#9;&#9;c1.419,1.42,2.976,2.702,4.65,3.824l0.136,0.116c-10.597,12.425-16.376,28.116-16.376,44.732c0,5.594,0.673,11.158,2.001,16.551&#10;&#9;&#9;&#9;&#9;&#9;l0,0c-17.276-0.402-33.308-7.357-45.57-19.619c-12.64-12.64-19.601-29.445-19.601-47.32c0-5.743,0.76-11.346,2.202-16.732"/><circle fill="#FDFDFE" cx="110.735" cy="57.355" r="29.978"/><path fill="#0F4F79" d="M128.614,28.989c-1.339,0.711-2.814,1.358-4.44,1.924l-0.033-0.094&#10;&#9;&#9;&#9;&#9;&#9;c9.843,4.813,16.629,14.867,16.629,26.464c0,1.204-0.073,2.392-0.215,3.558l0.014,0.139c2.257-0.222,4.548-0.336,6.867-0.336&#10;&#9;&#9;&#9;&#9;&#9;l-0.048,0.013c-3.01-11.588-9.098-22.213-17.857-30.897c-0.284-0.281-0.569-0.56-0.857-0.835L128.614,28.989z"/><circle fill="#FFFFFF" cx="116.161" cy="49.723" r="5.102"/><path fill="#FFFFFF" d="M102.637,63.804c0.737,0.945,1.63,1.763,2.64,2.415l3.571-6.07L102.637,63.804L102.637,63.804z"/><circle fill="#0F4F79" cx="111.695" cy="57.132" r="8.804"/><path fill="#F47C34" d="M82.007,89.498c1.222-4.471,3.43-8.539,6.374-11.956l-0.03,0.026c-2.917-3.395-5.108-7.431-6.329-11.865&#10;&#9;&#9;&#9;&#9;&#9;l-0.032,0.009c-1.221,4.43-3.411,8.464-6.327,11.856l-0.028-0.025c2.943,3.416,5.15,7.484,6.373,11.955H82.007z"/><path fill="#5FA0D6" d="M35.747,29.361c1.32,0.707,2.775,1.351,4.378,1.914l0.033-0.093C30.452,35.968,23.76,45.968,23.76,57.502&#10;&#9;&#9;&#9;&#9;&#9;c0,1.198,0.072,2.378,0.212,3.539l-0.014,0.139c-2.226-0.221-4.485-0.335-6.771-0.335l0.048,0.012&#10;&#9;&#9;&#9;&#9;&#9;c2.967-11.525,8.972-22.092,17.608-30.729c0.279-0.28,0.561-0.557,0.845-0.831L35.747,29.361z"/><circle fill="#0F4F79" cx="55.07" cy="57.132" r="8.803"/><path opacity="0.1" fill="#010203" d="M155.14,73.515c0,19.765-7.697,38.347-21.673,52.324&#10;&#9;&#9;&#9;&#9;&#9;c-13.976,13.977-32.558,21.674-52.324,21.674c-19.766,0-38.348-7.697-52.324-21.674C14.843,111.862,7.146,93.28,7.146,73.515h8.588&#10;&#9;&#9;&#9;&#9;&#9;c0,17.471,6.804,33.897,19.157,46.251c12.354,12.355,28.78,19.159,46.252,19.159c17.471,0,33.897-6.804,46.251-19.159&#10;&#9;&#9;&#9;&#9;&#9;c12.354-12.354,19.158-28.779,19.158-46.251H155.14z"/><path fill="#F47C34" d="M81.143,150.032c-19.766,0-38.348-7.698-52.324-21.674C14.843,114.382,7.146,95.799,7.146,76.035&#10;&#9;&#9;&#9;&#9;&#9;c0-19.765,7.697-38.348,21.673-52.325C42.796,9.733,61.378,2.036,81.143,2.036c19.765,0,38.347,7.697,52.324,21.673&#10;&#9;&#9;&#9;&#9;&#9;c13.976,13.977,21.673,32.56,21.673,52.325c0,19.765-7.697,38.347-21.673,52.323C119.491,142.334,100.909,150.032,81.143,150.032z&#10;&#9;&#9;&#9;&#9;&#9;&#9;M81.143,10.625c-17.472,0-33.897,6.804-46.252,19.158c-12.354,12.355-19.157,28.78-19.157,46.252&#10;&#9;&#9;&#9;&#9;&#9;c0,17.471,6.804,33.897,19.157,46.251c12.354,12.355,28.78,19.159,46.252,19.159c17.471,0,33.897-6.804,46.251-19.159&#10;&#9;&#9;&#9;&#9;&#9;c12.354-12.354,19.158-28.779,19.158-46.251c0-17.472-6.804-33.897-19.158-46.252C115.04,17.428,98.615,10.625,81.143,10.625z"/><g opacity="0.1"><path fill="#010203" d="M81.977,35.999L23.004,6.688c-0.33,3.694-1.209,25.445,27.918,27.926c0.605-0.036,1.214-0.058,1.828-0.058&#10;&#9;&#9;&#9;&#9;&#9;&#9;c13.057,0,24.288,7.89,29.227,19.144V35.999z"/><path fill="#010203" d="M141.009,6.688L81.976,36.029V53.84c4.908-11.328,16.176-19.283,29.286-19.283&#10;&#9;&#9;&#9;&#9;&#9;&#9;c0.614,0,1.223,0.021,1.827,0.058C142.218,32.133,141.338,10.382,141.009,6.688z"/></g><path opacity="0.1" fill="#010203" d="M125.386,93.125c-2.831,0-5.958-0.225-9.297-0.669c-7.105-0.945-12.801-3.494-17.413-7.793&#10;&#9;&#9;&#9;&#9;&#9;c-3.928-3.66-6.453-8.025-8.597-12.197c-2.486-4.837-3.317-10.42-3.717-13.104l-0.09-0.593c-0.311-2.018-1.791-3.042-4.397-3.042&#10;&#9;&#9;&#9;&#9;&#9;h-0.212c-3.789,0-4.226,2.19-4.39,3.014l-0.014,0.071c-0.097,0.476-0.196,1.049-0.311,1.713c-0.53,3.065-1.33,7.697-3.534,11.987&#10;&#9;&#9;&#9;&#9;&#9;c-2.143,4.171-4.666,8.533-8.573,12.174c-4.597,4.282-10.285,6.824-17.39,7.769c-3.338,0.444-6.465,0.669-9.296,0.669&#10;&#9;&#9;&#9;&#9;&#9;c-10.303,0-17.365-2.86-21.589-8.742c-5.5-7.658-6.577-19.565-7.037-24.65l-0.054-0.596c-0.388-4.202-2.258-5.086-3.045-5.271&#10;&#9;&#9;&#9;&#9;&#9;c-1.434-0.338-1.793-1.465-1.694-2.22c-0.02-0.669-0.134-4.727-0.068-6.198c0.077-1.681,1.05-2.49,1.635-2.714&#10;&#9;&#9;&#9;&#9;&#9;c0.306-0.127,2.871-1.124,11.746-2.872c8.078-1.591,15.298-2.332,22.724-2.332c2.86,0,5.802,0.115,8.747,0.339&#10;&#9;&#9;&#9;&#9;&#9;c11.722,0.897,23.585,5.441,24.256,5.701c2.228,0.712,6.95,0.867,8.003,0.867c1.02,0,6.2-0.288,7.985-0.865&#10;&#9;&#9;&#9;&#9;&#9;c0.649-0.252,12.524-4.805,24.258-5.702c2.945-0.225,5.887-0.339,8.747-0.339c7.426,0,14.647,0.741,22.725,2.332&#10;&#9;&#9;&#9;&#9;&#9;c8.873,1.748,11.438,2.745,11.745,2.872c0.585,0.224,1.559,1.033,1.635,2.714c0.067,1.47-0.048,5.528-0.068,6.198&#10;&#9;&#9;&#9;&#9;&#9;c0.1,0.755-0.26,1.882-1.695,2.22c-0.786,0.185-2.657,1.069-3.045,5.271l-0.054,0.593c-0.46,5.085-1.536,16.993-7.037,24.652&#10;&#9;&#9;&#9;&#9;&#9;C142.751,90.266,135.689,93.125,125.386,93.125z M122.337,43.224c-1.197,0-2.44,0.023-3.693,0.069&#10;&#9;&#9;&#9;&#9;&#9;c-11.248,0.411-19.143,3.979-19.221,4.015c-6.774,3.055-7.137,7.181-6.822,10.02c0.141,1.27,1.001,7.939,4.093,14.588&#10;&#9;&#9;&#9;&#9;&#9;c3.858,8.299,9.512,13.274,16.803,14.786c4.085,0.847,7.921,1.276,11.402,1.276c8.362,0.001,14.639-2.522,17.677-7.104&#10;&#9;&#9;&#9;&#9;&#9;c2.456-3.704,5.277-11.916,5.147-22.869c-0.075-6.322-1.512-9.398-5.299-11.351C138.136,44.443,131.002,43.224,122.337,43.224z&#10;&#9;&#9;&#9;&#9;&#9;&#9;M41.202,43.224c-8.664,0-15.798,1.218-20.088,3.43c-3.787,1.953-5.223,5.029-5.299,11.351c-0.13,10.954,2.691,19.165,5.147,22.869&#10;&#9;&#9;&#9;&#9;&#9;c3.038,4.581,9.316,7.104,17.677,7.104h0.001c3.48,0,7.315-0.429,11.401-1.276c7.292-1.512,12.945-6.487,16.804-14.786&#10;&#9;&#9;&#9;&#9;&#9;c3.091-6.649,3.951-13.318,4.092-14.587c0.315-2.839-0.048-6.966-6.816-10.018c-0.084-0.039-7.979-3.606-19.227-4.018&#10;&#9;&#9;&#9;&#9;&#9;C43.642,43.247,42.399,43.224,41.202,43.224z"/><g><path fill="#0F4F79" d="M141.009,5.495l-59.032,29.34v17.811c4.908-11.327,16.176-19.283,29.286-19.283&#10;&#9;&#9;&#9;&#9;&#9;&#9;c0.614,0,1.223,0.022,1.827,0.058C142.218,30.94,141.338,9.189,141.009,5.495z"/><path fill="#5FA0D6" d="M81.977,34.806L23.004,5.495c-0.33,3.694-1.209,25.445,27.918,27.925c0.605-0.036,1.214-0.058,1.828-0.058&#10;&#9;&#9;&#9;&#9;&#9;&#9;c13.057,0,24.288,7.891,29.227,19.145V34.806z"/></g><path opacity="0.3" fill="#E5E6E7" d="M64.3,43.95c0,0-7.983-3.674-19.569-4.097c-11.586-0.424-19.71,1.13-24.232,3.462&#10;&#9;&#9;&#9;&#9;&#9;c-4.521,2.331-5.722,6.217-5.793,12.151c-0.07,5.934,0.99,16.884,5.299,23.384c4.309,6.5,14.694,9.396,30.024,6.217&#10;&#9;&#9;&#9;&#9;&#9;C68.082,81.323,71.294,58.079,71.647,54.9C72.001,51.721,71.506,47.2,64.3,43.95z"/><linearGradient id="SVGID_1_" gradientUnits="userSpaceOnUse" x1="37.1305" y1="58.1505" x2="71.7298" y2="58.1505"><stop offset="0" style="stop-color: rgb(255, 255, 255);"/><stop offset="1" style="stop-color: rgb(209, 211, 212);"/></linearGradient><path opacity="0.5" fill="url(#SVGID_1_)" d="M64.3,43.95c0,0-7.983-3.674-19.569-4.097c-2.727-0.1-5.26-0.089-7.601,0.014&#10;&#9;&#9;&#9;&#9;&#9;L63.4,76.518c6.477-8.254,8.01-19.478,8.248-21.617C72.001,51.721,71.506,47.2,64.3,43.95z"/><linearGradient id="SVGID_2_" gradientUnits="userSpaceOnUse" x1="16.8625" y1="54.0173" x2="44.3836" y2="54.0173"><stop offset="0" style="stop-color: rgb(255, 255, 255);"/><stop offset="1" style="stop-color: rgb(230, 231, 232);"/></linearGradient><path opacity="0.8" fill="url(#SVGID_2_)" d="M22.06,49.408c4.395-4.981,21.612-6.563,22.324-6.5&#10;&#9;&#9;&#9;&#9;&#9;c-0.548-0.541-8.197-0.723-12.716-0.283c-5.793,0.566-9.759,1.987-11.756,3.016c-2.245,1.158-2.483,3.114-2.876,6.034&#10;&#9;&#9;&#9;&#9;&#9;c-0.627,4.655,0.626,13.587,1.068,13.981C17.793,63.34,17.821,54.211,22.06,49.408z"/><path opacity="0.3" fill="#E5E6E7" d="M98.846,43.95c0,0,7.984-3.674,19.57-4.097c11.586-0.424,19.71,1.13,24.231,3.462&#10;&#9;&#9;&#9;&#9;&#9;c4.521,2.331,5.722,6.217,5.793,12.151c0.071,5.934-0.989,16.884-5.299,23.384c-4.309,6.5-14.694,9.396-30.024,6.217&#10;&#9;&#9;&#9;&#9;&#9;C95.064,81.323,91.852,58.079,91.499,54.9C91.145,51.721,91.64,47.2,98.846,43.95z"/><linearGradient id="SVGID_3_" gradientUnits="userSpaceOnUse" x1="117.0008" y1="58.6498" x2="148.4428" y2="58.6498"><stop offset="0" style="stop-color: rgb(255, 255, 255);"/><stop offset="1" style="stop-color: rgb(209, 211, 212);"/></linearGradient><path opacity="0.5" fill="url(#SVGID_3_)" d="M142.647,43.314c-4.521-2.331-12.646-3.886-24.231-3.462&#10;&#9;&#9;&#9;&#9;&#9;c-0.479,0.017-0.949,0.043-1.414,0.07l26.945,37.593c3.638-6.581,4.56-16.505,4.494-22.051&#10;&#9;&#9;&#9;&#9;&#9;C148.368,49.531,147.168,45.646,142.647,43.314z"/><linearGradient id="SVGID_4_" gradientUnits="userSpaceOnUse" x1="94.2753" y1="55.2887" x2="120.3299" y2="55.2887"><stop offset="0" style="stop-color: rgb(255, 255, 255);"/><stop offset="1" style="stop-color: rgb(230, 231, 232);"/></linearGradient><path opacity="0.8" fill="url(#SVGID_4_)" d="M99.138,51.714c3.652-5.548,20.479-9.528,21.192-9.566&#10;&#9;&#9;&#9;&#9;&#9;c-0.618-0.458-8.217,0.433-12.63,1.504c-5.657,1.372-9.414,3.293-11.217,4.634c-2.647,1.969-2.309,3.447-2.002,6.378&#10;&#9;&#9;&#9;&#9;&#9;c0.485,4.634,3.807,13.561,4.3,13.888C98.15,66.302,95.615,57.064,99.138,51.714z"/><path fill="#0D4A6B" d="M125.191,90.75c-2.83,0-5.958-0.225-9.297-0.669c-7.104-0.945-12.801-3.494-17.413-7.793&#10;&#9;&#9;&#9;&#9;&#9;c-3.927-3.66-6.453-8.025-8.597-12.197c-2.485-4.837-3.317-10.42-3.717-13.104l-0.09-0.593c-0.312-2.018-1.791-3.042-4.397-3.042&#10;&#9;&#9;&#9;&#9;&#9;h-0.212c-3.789,0-4.226,2.19-4.39,3.014l-0.014,0.071c-0.097,0.476-0.196,1.049-0.311,1.713c-0.53,3.065-1.33,7.697-3.535,11.987&#10;&#9;&#9;&#9;&#9;&#9;c-2.143,4.171-4.665,8.533-8.573,12.174c-4.596,4.282-10.285,6.824-17.39,7.769c-3.338,0.444-6.466,0.669-9.296,0.669&#10;&#9;&#9;&#9;&#9;&#9;c-10.303,0.001-17.365-2.859-21.589-8.742c-5.5-7.657-6.577-19.564-7.037-24.649l-0.054-0.596&#10;&#9;&#9;&#9;&#9;&#9;c-0.388-4.202-2.259-5.086-3.045-5.271c-1.434-0.338-1.793-1.465-1.694-2.22c-0.02-0.67-0.135-4.728-0.068-6.198&#10;&#9;&#9;&#9;&#9;&#9;c0.077-1.681,1.049-2.49,1.635-2.714c0.306-0.127,2.871-1.125,11.746-2.872c8.078-1.591,15.298-2.332,22.724-2.332&#10;&#9;&#9;&#9;&#9;&#9;c2.86,0,5.803,0.114,8.747,0.339c11.722,0.897,23.585,5.441,24.256,5.701c2.228,0.712,6.95,0.867,8.003,0.867&#10;&#9;&#9;&#9;&#9;&#9;c1.02,0,6.2-0.288,7.985-0.865c0.65-0.252,12.524-4.805,24.258-5.702c2.945-0.225,5.887-0.339,8.747-0.339&#10;&#9;&#9;&#9;&#9;&#9;c7.426,0,14.647,0.741,22.725,2.332c8.873,1.748,11.438,2.745,11.745,2.872c0.585,0.224,1.559,1.033,1.635,2.714&#10;&#9;&#9;&#9;&#9;&#9;c0.067,1.47-0.048,5.528-0.068,6.198c0.099,0.755-0.26,1.882-1.695,2.22c-0.787,0.185-2.657,1.069-3.045,5.271l-0.054,0.593&#10;&#9;&#9;&#9;&#9;&#9;c-0.46,5.085-1.536,16.993-7.037,24.652C142.555,87.891,135.494,90.75,125.191,90.75z M122.142,40.85&#10;&#9;&#9;&#9;&#9;&#9;c-1.197,0-2.44,0.023-3.693,0.069c-11.248,0.411-19.143,3.979-19.221,4.015c-6.774,3.055-7.137,7.182-6.822,10.02&#10;&#9;&#9;&#9;&#9;&#9;c0.141,1.27,1.001,7.938,4.092,14.588c3.859,8.299,9.512,13.273,16.804,14.786c4.085,0.847,7.921,1.277,11.402,1.277&#10;&#9;&#9;&#9;&#9;&#9;c8.361,0,14.639-2.522,17.677-7.104c2.456-3.704,5.277-11.916,5.147-22.869c-0.076-6.322-1.512-9.398-5.299-11.351&#10;&#9;&#9;&#9;&#9;&#9;C137.94,42.068,130.806,40.85,122.142,40.85z M41.007,40.85c-8.664,0-15.798,1.218-20.088,3.43&#10;&#9;&#9;&#9;&#9;&#9;c-3.787,1.953-5.223,5.029-5.299,11.351c-0.13,10.953,2.691,19.165,5.147,22.869c3.038,4.581,9.316,7.104,17.677,7.104h0.001&#10;&#9;&#9;&#9;&#9;&#9;c3.479,0,7.315-0.429,11.4-1.277c7.292-1.512,12.946-6.487,16.805-14.786c3.091-6.649,3.951-13.318,4.092-14.588&#10;&#9;&#9;&#9;&#9;&#9;c0.316-2.838-0.047-6.965-6.815-10.018c-0.084-0.039-7.979-3.606-19.227-4.017C43.447,40.873,42.204,40.85,41.007,40.85z"/><path opacity="0.1" fill="#010203" d="M72.2,49.845c0,0,2.427,4.271-0.419,14.972c-3.15,11.845-11.957,16.392-11.957,16.392&#10;&#9;&#9;&#9;&#9;&#9;s7.533-6.032,10.195-16.545C72.846,53.493,72.2,49.845,72.2,49.845z"/><circle fill="#FFFFFF" cx="153.747" cy="46.12" r="1.673"/><path opacity="0.1" fill="#010203" d="M91.207,50.074c0,0-2.427,4.271,0.419,14.972c3.15,11.845,11.957,16.392,11.957,16.392&#10;&#9;&#9;&#9;&#9;&#9;s-7.533-6.032-10.195-16.545C90.56,53.723,91.207,50.074,91.207,50.074z"/><circle fill="#FFFFFF" cx="8.684" cy="46.12" r="1.673"/></g><g><g><g><path fill="#F47C34" d="M617.842,37.316v-7.271c0-0.316,0.085-0.563,0.256-0.742c0.171-0.179,0.418-0.268,0.742-0.268h2.274&#10;&#9;&#9;&#9;&#9;&#9;&#9;&#9;c1.032,0,1.827,0.239,2.385,0.717c0.558,0.478,0.837,1.214,0.837,2.208c0,0.35-0.061,0.665-0.183,0.948&#10;&#9;&#9;&#9;&#9;&#9;&#9;&#9;c-0.122,0.282-0.294,0.525-0.515,0.73c-0.221,0.204-0.474,0.369-0.758,0.493c-0.284,0.124-0.597,0.216-0.938,0.275l2.205,2.35&#10;&#9;&#9;&#9;&#9;&#9;&#9;&#9;c0.168,0.185,0.253,0.377,0.253,0.575c0,0.261-0.094,0.492-0.281,0.692c-0.188,0.2-0.416,0.3-0.685,0.3&#10;&#9;&#9;&#9;&#9;&#9;&#9;&#9;c-0.312,0-0.562-0.111-0.752-0.335l-2.874-3.481h-0.025v2.811c0,0.32-0.09,0.567-0.269,0.742&#10;&#9;&#9;&#9;&#9;&#9;&#9;&#9;c-0.179,0.175-0.412,0.262-0.698,0.262c-0.282,0-0.515-0.089-0.698-0.269C617.933,37.873,617.842,37.628,617.842,37.316z&#10;&#9;&#9;&#9;&#9;&#9;&#9;&#9;&#9;M619.781,30.822v2.287h1.333c0.358,0,0.649-0.103,0.872-0.309c0.223-0.206,0.335-0.485,0.335-0.838&#10;&#9;&#9;&#9;&#9;&#9;&#9;&#9;c0-0.365-0.111-0.647-0.332-0.844c-0.221-0.197-0.513-0.296-0.875-0.296H619.781z"/></g><path fill="#F47C34" d="M620.836,43.575c-2.604,0-4.932-1.038-6.92-3.085c-1.976-2.034-2.978-4.394-2.978-7.014&#10;&#9;&#9;&#9;&#9;&#9;&#9;c0-2.535,1.011-4.811,3.005-6.764c1.984-1.945,4.304-2.932,6.893-2.932c1.754,0,3.411,0.464,4.926,1.38&#10;&#9;&#9;&#9;&#9;&#9;&#9;c1.482,0.899,2.689,2.096,3.586,3.558c0.92,1.5,1.386,3.101,1.386,4.758c0,2.716-0.966,5.099-2.871,7.083&#10;&#9;&#9;&#9;&#9;&#9;&#9;C625.941,42.56,623.577,43.575,620.836,43.575z M620.836,26.862c-1.779,0-3.328,0.671-4.735,2.052&#10;&#9;&#9;&#9;&#9;&#9;&#9;c-1.4,1.371-2.08,2.863-2.08,4.562c0,1.816,0.689,3.408,2.106,4.867c1.405,1.447,2.945,2.15,4.709,2.15&#10;&#9;&#9;&#9;&#9;&#9;&#9;c1.895,0,3.467-0.677,4.804-2.069c1.354-1.41,2.012-3.029,2.012-4.948c0-1.095-0.305-2.125-0.931-3.146&#10;&#9;&#9;&#9;&#9;&#9;&#9;c-0.647-1.054-1.484-1.883-2.556-2.533C623.126,27.168,622.036,26.862,620.836,26.862z"/></g><path fill="#F47C34" d="M204.113,116.995V43.9h-15.854c-3.223,0-5.687-0.987-7.394-2.961c-1.706-1.974-2.559-4.34-2.559-7.099&#10;&#9;&#9;&#9;&#9;&#9;c0-1.712,0.415-3.353,1.244-4.922c0.828-1.569,2.014-2.819,3.555-3.746c1.54-0.928,3.258-1.392,5.154-1.392h53.535&#10;&#9;&#9;&#9;&#9;&#9;c1.895,0,3.613,0.465,5.154,1.392c1.539,0.927,2.725,2.176,3.555,3.746c0.828,1.569,1.244,3.21,1.244,4.922&#10;&#9;&#9;&#9;&#9;&#9;c0,2.759-0.83,5.125-2.488,7.099c-1.659,1.974-4.148,2.961-7.465,2.961h-15.854v73.095c0,3.599-1.008,6.38-3.022,8.346&#10;&#9;&#9;&#9;&#9;&#9;c-2.015,1.966-4.634,2.948-7.856,2.948c-3.27,0-5.912-0.982-7.927-2.948C205.119,123.375,204.113,120.594,204.113,116.995z"/><path fill="#F47C34" d="M359.901,113.347l28.741-77.708c1.348-3.581,3.358-6.452,6.034-8.615c2.673-2.162,5.755-3.243,9.243-3.243&#10;&#9;&#9;&#9;&#9;&#9;c3.673,0,6.824,1.07,9.452,3.209c2.627,2.139,4.569,5.022,5.825,8.65l28.042,77.708c0.743,2.047,1.116,3.814,1.116,5.301&#10;&#9;&#9;&#9;&#9;&#9;c0,1.814-0.453,3.443-1.36,4.883c-0.907,1.442-2.105,2.558-3.593,3.349c-1.489,0.79-3.116,1.186-4.882,1.186&#10;&#9;&#9;&#9;&#9;&#9;c-5.301,0-8.789-2.456-10.463-7.369l-4.255-13.418h-39.692l-4.325,13.279c-1.581,5.006-4.999,7.509-10.254,7.509&#10;&#9;&#9;&#9;&#9;&#9;c-2.93,0-5.431-0.965-7.5-2.895c-2.07-1.929-3.104-4.29-3.104-7.081C358.925,116.743,359.25,115.161,359.901,113.347z&#10;&#9;&#9;&#9;&#9;&#9;&#9;M403.779,46.102l-13.533,41.435h27.136l-13.324-41.435H403.779z"/><path fill="#F47C34" d="M464.047,116.995V43.9h-15.854c-3.224,0-5.687-0.987-7.394-2.961c-1.706-1.974-2.56-4.34-2.56-7.099&#10;&#9;&#9;&#9;&#9;&#9;c0-1.712,0.415-3.353,1.244-4.922c0.828-1.569,2.013-2.819,3.555-3.746c1.539-0.928,3.258-1.392,5.154-1.392h53.534&#10;&#9;&#9;&#9;&#9;&#9;c1.896,0,3.615,0.465,5.155,1.392c1.54,0.927,2.725,2.176,3.553,3.746c0.832,1.569,1.246,3.21,1.246,4.922&#10;&#9;&#9;&#9;&#9;&#9;c0,2.759-0.828,5.125-2.488,7.099c-1.66,1.974-4.149,2.961-7.465,2.961h-15.855v73.095c0,3.599-1.006,6.38-3.019,8.346&#10;&#9;&#9;&#9;&#9;&#9;c-2.016,1.966-4.635,2.948-7.857,2.948c-3.27,0-5.912-0.982-7.927-2.948C465.053,123.375,464.047,120.594,464.047,116.995z"/><path fill="#F47C34" d="M559.069,127.949c-28.719,0-52.085-23.365-52.085-52.084c0-28.719,23.365-52.085,52.085-52.085&#10;&#9;&#9;&#9;&#9;&#9;c28.719,0,52.085,23.365,52.085,52.085C611.154,104.584,587.788,127.949,559.069,127.949z M559.069,42.635&#10;&#9;&#9;&#9;&#9;&#9;c-18.323,0-33.229,14.907-33.229,33.229c0,18.322,14.906,33.229,33.229,33.229c18.323,0,33.229-14.907,33.229-33.229&#10;&#9;&#9;&#9;&#9;&#9;C592.298,57.542,577.392,42.635,559.069,42.635z"/><g><path fill="#F47C34" d="M283.184,117.899c0,13.06-19.964,13.51-19.964,0.302V32.937c0-5.254,4.054-9.157,9.006-9.157h39.931&#10;&#9;&#9;&#9;&#9;&#9;&#9;c38.129,0,45.935,51.038,14.111,63.798l19.964,24.318c7.806,11.56-7.806,22.667-16.814,11.258L306.752,90.73h-23.568V117.899z&#10;&#9;&#9;&#9;&#9;&#9;&#9;&#9;M283.184,73.466h28.972c19.514,0,20.714-31.524,0-31.524h-28.972V73.466z"/></g></g></svg>